# xmcd CD database file
#
# Track frame offsets:
#	180
#	20685
#	33804
#	55489
#	71786
#	93129
#	113497
#	142187
#	168553
#	199379
#
# Disc length: 2792 seconds
#
# Revision: 0
# Processed by: cddbd v1.5.1PL0 Copyright (c) Steve Scherf et al.
# Submitted via: CDex 1.60beta1
#
DISCID=8e0ae60a
DTITLE=The Ruffnecks - Burnt Again
DYEAR=0
DGENRE=Blues
TTITLE0=The Price
TTITLE1=Party At Rippers
TTITLE2=Tequila Dreams
TTITLE3=Search Room #1
TTITLE4=Now She Can See
TTITLE5=Farmers Daughter
TTITLE6=Burnt Again
TTITLE7=Same Old Grind
TTITLE8=Daddy Rollin' Stone
TTITLE9=Lems Lament ( Lynchberg Blooze )
EXTD=YEAR: 0
EXTT0=
EXTT1=
EXTT2=
EXTT3=
EXTT4=
EXTT5=
EXTT6=
EXTT7=
EXTT8=
EXTT9=
PLAYORDER=
